fd_4_states
version=1
nRows=23
nColumns=17
inDegrees=yes

# SIMM Motion File Header:
name fd_4_states
datacolumns 17
datarows 23
otherdata 1
range 0.030000 0.046373
endheader
time	/jointset/r_shoulder/r_shoulder_elev/value	/jointset/r_shoulder/r_shoulder_elev/speed	/jointset/r_elbow/r_elbow_flex/value	/jointset/r_elbow/r_elbow_flex/speed	/forceset/TRIlong/activation	/forceset/TRIlong/fiber_length	/forceset/TRIlat/activation	/forceset/TRIlat/fiber_length	/forceset/TRImed/activation	/forceset/TRImed/fiber_length	/forceset/BIClong/activation	/forceset/BIClong/fiber_length	/forceset/BICshort/activation	/forceset/BICshort/fiber_length	/forceset/BRA/activation	/forceset/BRA/fiber_length
      0.030000	      0.000000	      0.000000	     -0.000000	     -0.205405	      0.034772	      0.136390	      0.029938	      0.070365	      0.030323	      0.065432	      0.020000	      0.148476	      0.020000	      0.147802	      0.020000	      0.093434
      0.030040	     -0.000000	     -0.000017	     -0.000008	     -0.196475	      0.035658	      0.136390	      0.029933	      0.070365	      0.030318	      0.065432	      0.020000	      0.148476	      0.020000	      0.147802	      0.020062	      0.093434
      0.030079	     -0.000000	     -0.000037	     -0.000016	     -0.187538	      0.036711	      0.136390	      0.029928	      0.070365	      0.030313	      0.065432	      0.020000	      0.148476	      0.020000	      0.147802	      0.020137	      0.093434
      0.030278	     -0.000000	     -0.000183	     -0.000048	     -0.142822	      0.041825	      0.136388	      0.029901	      0.070365	      0.030285	      0.065432	      0.020000	      0.148476	      0.020000	      0.147802	      0.020500	      0.093434
      0.031270	     -0.000001	     -0.002617	     -0.000081	      0.074877	      0.064074	      0.136351	      0.029768	      0.070365	      0.030147	      0.065432	      0.020000	      0.148476	      0.020000	      0.147802	      0.022123	      0.093431
      0.033305	     -0.000021	     -0.019207	      0.000455	      0.421370	      0.097311	      0.136202	      0.029501	      0.070366	      0.029869	      0.065433	      0.020000	      0.148476	      0.020000	      0.147802	      0.024626	      0.093420
      0.035988	     -0.000119	     -0.055389	      0.001799	      0.492581	      0.125710	      0.135980	      0.029161	      0.070368	      0.029515	      0.065435	      0.020000	      0.148476	      0.020000	      0.147802	      0.026747	      0.093405
      0.039705	     -0.000399	     -0.088699	      0.002334	     -0.410465	      0.149218	      0.135724	      0.028710	      0.070372	      0.029046	      0.065439	      0.020000	      0.148476	      0.020000	      0.147801	      0.028380	      0.093391
      0.039843	     -0.000412	     -0.089034	      0.002273	     -0.468238	      0.149863	      0.135716	      0.028694	      0.070372	      0.029029	      0.065439	      0.020000	      0.148476	      0.020000	      0.147801	      0.028421	      0.093390
      0.039985	     -0.000424	     -0.089303	      0.002202	     -0.529455	      0.150512	      0.135708	      0.028677	      0.070373	      0.029012	      0.065440	      0.020000	      0.148476	      0.020000	      0.147801	      0.028463	      0.093390
      0.039997	     -0.000425	     -0.089320	      0.002196	     -0.534300	      0.150562	      0.135707	      0.028676	      0.070373	      0.029010	      0.065440	      0.020000	      0.148476	      0.020000	      0.147801	      0.028466	      0.093390
      0.040001	     -0.000426	     -0.089327	      0.002194	     -0.536329	      0.150578	      0.135707	      0.028679	      0.070373	      0.029012	      0.065440	      0.020087	      0.148476	      0.020066	      0.147801	      0.028468	      0.093390
      0.040006	     -0.000426	     -0.089334	      0.002191	     -0.538361	      0.150568	      0.135706	      0.028722	      0.070373	      0.029040	      0.065440	      0.020887	      0.148476	      0.020677	      0.147801	      0.028467	      0.093390
      0.040010	     -0.000427	     -0.089341	      0.002189	     -0.540395	      0.150557	      0.135706	      0.028767	      0.070373	      0.029070	      0.065440	      0.021741	      0.148476	      0.021329	      0.147801	      0.028466	      0.093390
      0.040034	     -0.000429	     -0.089372	      0.002176	     -0.550596	      0.150502	      0.135705	      0.028995	      0.070373	      0.029220	      0.065440	      0.025967	      0.148475	      0.024563	      0.147801	      0.028464	      0.093390
      0.040150	     -0.000439	     -0.089449	      0.002109	     -0.602281	      0.150228	      0.135698	      0.030119	      0.070373	      0.029957	      0.065440	      0.046144	      0.148470	      0.040117	      0.147796	      0.028451	      0.093389
      0.040543	     -0.000474	     -0.088855	      0.001837	     -0.782531	      0.149304	      0.135678	      0.033730	      0.070370	      0.032333	      0.065438	      0.105291	      0.148421	      0.086613	      0.147748	      0.028406	      0.093388
      0.041018	     -0.000516	     -0.086042	      0.001413	     -1.004821	      0.148198	      0.135655	      0.037724	      0.070364	      0.034968	      0.065434	      0.163819	      0.148334	      0.133558	      0.147656	      0.028352	      0.093387
      0.041638	     -0.000567	     -0.077779	      0.000699	     -1.294995	      0.146772	      0.135629	      0.042396	      0.070351	      0.038061	      0.065426	      0.226705	      0.148201	      0.184629	      0.147509	      0.028282	      0.093386
      0.042434	     -0.000622	     -0.058107	     -0.000476	     -1.655983	      0.144972	      0.135600	      0.047615	      0.070329	      0.041525	      0.065412	      0.292821	      0.148020	      0.238695	      0.147303	      0.028193	      0.093386
      0.043450	     -0.000662	     -0.018238	     -0.002376	     -2.073238	      0.142721	      0.135569	      0.053224	      0.070298	      0.045256	      0.065391	      0.361675	      0.147787	      0.295118	      0.147034	      0.028081	      0.093385
      0.044740	     -0.000643	      0.050082	     -0.005329	     -2.473173	      0.139934	      0.135540	      0.058983	      0.070255	      0.049089	      0.065363	      0.432532	      0.147502	      0.353060	      0.146708	      0.027941	      0.093385
      0.046373	     -0.000484	      0.143964	     -0.009568	     -2.643575	      0.136520	      0.135513	      0.064594	      0.070204	      0.052816	      0.065328	      0.504508	      0.147172	      0.411552	      0.146338	      0.027767	      0.093386
